<svg width="1080" height="1080" viewBox="0 0 1080 1080" fill="none" xmlns="http://www.w3.org/2000/svg">
<rect width="1080" height="1080" rx="280" fill="#F25C54"/>
<path d="M478.584 322.792L540.501 260.875M416.667 663.333L664.334 415.667M540.501 818.125L602.417 756.208M679.813 756.208C700.34 756.208 720.026 748.054 734.54 733.54C749.055 719.025 757.209 699.339 757.209 678.813C757.209 658.286 749.055 638.6 734.54 624.085C720.026 609.571 700.34 601.417 679.813 601.417C659.287 601.417 639.601 609.571 625.086 624.085C610.572 638.6 602.417 658.286 602.417 678.813C602.417 699.339 610.572 719.025 625.086 733.54C639.601 748.054 659.287 756.208 679.813 756.208ZM401.188 477.583C421.715 477.583 441.401 469.429 455.915 454.915C470.43 440.4 478.584 420.714 478.584 400.188C478.584 379.661 470.43 359.975 455.915 345.46C441.401 330.946 421.715 322.792 401.188 322.792C380.662 322.792 360.976 330.946 346.461 345.46C331.947 359.975 323.792 379.661 323.792 400.188C323.792 420.714 331.947 440.4 346.461 454.915C360.976 469.429 380.662 477.583 401.188 477.583ZM339.272 818.125C359.798 818.125 379.484 809.971 393.999 795.456C408.513 780.942 416.667 761.256 416.667 740.729C416.667 720.203 408.513 700.517 393.999 686.002C379.484 671.488 359.798 663.333 339.272 663.333C318.745 663.333 299.059 671.488 284.544 686.002C270.03 700.517 261.876 720.203 261.876 740.729C261.876 761.256 270.03 780.942 284.544 795.456C299.059 809.971 318.745 818.125 339.272 818.125ZM741.73 415.667C762.257 415.667 781.942 407.512 796.457 392.998C810.972 378.483 819.126 358.797 819.126 338.271C819.126 317.744 810.972 298.058 796.457 283.544C781.942 269.029 762.257 260.875 741.73 260.875C721.203 260.875 701.517 269.029 687.003 283.544C672.488 298.058 664.334 317.744 664.334 338.271C664.334 358.797 672.488 378.483 687.003 392.998C701.517 407.512 721.203 415.667 741.73 415.667Z" stroke="white" stroke-width="49.1691" stroke-linecap="round" stroke-linejoin="round"/>
</svg>
