<svg width="398" height="297" viewBox="0 0 398 297" fill="none" xmlns="http://www.w3.org/2000/svg">
<g clip-path="url(#clip0_544_310)">
<path d="M367.919 183.47C367.919 225.696 353.653 264.59 329.679 295.593H39.2103C15.2364 264.59 0.969971 225.696 0.969971 183.47C0.969971 82.1392 83.1172 0 184.449 0C285.781 0 367.919 82.1392 367.919 183.47Z" fill="white"/>
<path opacity="0.1" d="M367.919 183.47C367.919 225.696 353.653 264.59 329.679 295.593H39.2103C15.2364 264.59 0.969971 225.696 0.969971 183.47C0.969971 82.1392 83.1172 0 184.449 0C285.781 0 367.919 82.1392 367.919 183.47Z" fill="#F25C54"/>
<path d="M370.815 2.34619H225.256C211.058 2.34619 199.549 13.8555 199.549 28.0529V28.0535C199.549 42.251 211.058 53.7603 225.256 53.7603H370.815C385.013 53.7603 396.522 42.251 396.522 28.0535V28.0529C396.522 13.8555 385.013 2.34619 370.815 2.34619Z" fill="white"/>
<path d="M370.815 54.2678H225.256C210.802 54.2678 199.042 42.508 199.042 28.053C199.042 13.5981 210.802 1.83887 225.256 1.83887H370.815C385.27 1.83887 397.03 13.5987 397.03 28.053C397.03 42.5074 385.27 54.2678 370.815 54.2678ZM225.256 2.85374C211.361 2.85374 200.057 14.158 200.057 28.053C200.057 41.9481 211.361 53.2529 225.256 53.2529H370.815C384.711 53.2529 396.015 41.9487 396.015 28.053C396.015 14.1574 384.711 2.85374 370.815 2.85374H225.256Z" fill="#262626"/>
<path d="M226.439 14.5461L230.772 23.1195L240.28 24.5835L233.478 31.1537L235.196 40.5458L226.659 36.0331L218.213 40.3734L219.739 31.0141L212.801 24.305L222.281 23.0336L226.439 14.5461Z" fill="#F25C54"/>
<path d="M261.743 14.5461L266.076 23.1195L275.584 24.5835L268.782 31.1537L270.5 40.5458L261.963 36.0331L253.517 40.3734L255.043 31.0141L248.105 24.305L257.585 23.0336L261.743 14.5461Z" fill="#F25C54"/>
<path d="M297.047 14.5461L301.381 23.1195L310.888 24.5835L304.086 31.1537L305.804 40.5458L297.268 36.0331L288.822 40.3734L290.347 31.0141L283.41 24.305L292.889 23.0336L297.047 14.5461Z" fill="#F25C54"/>
<path d="M332.352 14.5461L336.685 23.1195L346.193 24.5835L339.391 31.1537L341.108 40.5458L332.572 36.0331L324.126 40.3734L325.652 31.0141L318.714 24.305L328.194 23.0336L332.352 14.5461Z" fill="#F25C54"/>
<path opacity="0.2" d="M367.656 14.5461L371.989 23.1195L381.497 24.5835L374.695 31.1537L376.413 40.5458L367.876 36.0331L359.43 40.3734L360.956 31.0141L354.019 24.305L363.498 23.0336L367.656 14.5461Z" fill="#F25C54"/>
<path d="M105.078 68.1623C105.078 68.1623 105.285 90.4703 101.576 97.3732C90.9001 117.246 88.3197 132.467 100.902 142.974C113.484 153.482 189.285 148.926 193.418 122.701C196.898 100.623 186.379 98.9266 182.738 81.118C181.09 73.0602 176.889 56.2104 176.889 56.2104" fill="#0A0A0A"/>
<path d="M171.868 121.242C171.737 121.224 170.055 145.345 142.037 142.976C122.64 141.339 115.914 120.679 115.469 120.675C117.566 120.25 121.097 119.637 122.031 119.15C125.102 117.536 128.901 115.863 129.941 109.937C130.542 106.521 129.744 89.0104 130.073 85.5518L159.805 92.4834C159.32 99.7899 156.246 116.709 166.431 119.805C168.125 120.317 169.951 120.791 171.869 121.242H171.868Z" fill="#FF9E85"/>
<path opacity="0.22" d="M160.031 112.818C159.621 111.467 159.381 110.293 159.178 108.185C158.814 104.416 159.06 100.956 159.474 97.4319C153.463 96.5739 147.708 93.9877 143.075 90.062C142.502 92.0998 139.375 100.999 140.2 102.949C141.757 106.635 149.184 112.715 160.031 112.818Z" fill="#0C0C0C"/>
<path d="M156.842 105.306C145.189 107.173 132.254 103.229 128.141 87.8105L121.901 74.0919C117.788 58.6734 122.551 44.0137 137.069 40.141C151.586 36.2678 163.771 40.2621 167.884 55.6812C167.884 55.6812 170.371 64.4933 170.876 67.4987C172.779 78.8323 174.524 102.474 156.842 105.307L156.842 105.306Z" fill="#FF9E85"/>
<path d="M168.205 64.8011C168.188 65.3126 166.275 65.4003 163.705 65.1881C161.135 64.9759 158.85 64.6685 158.897 64.0331C158.957 63.231 161.101 62.7529 163.671 62.9651C166.241 63.1773 168.231 63.9967 168.205 64.8011Z" fill="#0A0A0A"/>
<path d="M110.486 79.8783L127.4 83.2285C137.097 78.4459 134.948 54.1756 134.948 54.1756C134.948 54.1756 147.963 65.1131 176.889 56.2111C176.889 56.2111 168.057 16.9178 125.47 32.0566C111.738 36.9384 102.817 53.1088 105.463 71.8931C107.318 85.057 110.486 79.8783 110.486 79.8783Z" fill="#0A0A0A"/>
<path d="M127.767 92.4608C123.356 93.6377 118.631 92.3876 116.878 85.7419C115.713 81.3273 119.094 77.6616 123.506 76.4841L126.567 78.8339L131.561 91.4488L127.767 92.4608Z" fill="#FF9E85"/>
<path d="M165.147 70.9937C166.047 70.9273 166.723 70.1437 166.657 69.2437C166.59 68.3436 165.807 67.6678 164.907 67.7342C164.007 67.8006 163.331 68.5842 163.397 69.4842C163.464 70.3843 164.247 71.0601 165.147 70.9937Z" fill="#0A0A0A"/>
<path d="M157.727 83.4783C157.397 83.5025 157.096 83.2742 157.036 82.942C156.972 82.5868 157.208 82.2466 157.564 82.1832L160.99 81.5673L158.356 74.8277C158.225 74.4915 158.391 74.1121 158.727 73.9806C159.064 73.8497 159.442 74.0152 159.574 74.3514L162.497 81.832C162.568 82.0142 162.553 82.2183 162.458 82.389C162.363 82.5597 162.196 82.6785 162.003 82.7131L157.794 83.4696C157.772 83.4737 157.749 83.4765 157.726 83.4783H157.727Z" fill="#0A0A0A"/>
<path d="M155.232 91.524C149.322 91.96 147.301 88.5186 147.209 88.3572C147.032 88.0429 147.142 87.6445 147.456 87.4663C147.768 87.2893 148.166 87.3988 148.345 87.7102C148.43 87.8567 150.494 91.2305 156.939 89.9735C157.301 89.9014 157.637 90.1361 157.707 90.4901C157.776 90.8448 157.544 91.1879 157.191 91.2571C156.495 91.3926 155.843 91.4791 155.233 91.524H155.232Z" fill="#0A0A0A"/>
<path d="M148.384 65.9216C148.576 66.3956 146.863 67.2525 144.428 68.1013C141.993 68.9501 139.78 69.5965 139.566 68.9962C139.295 68.2385 141.061 66.9324 143.495 66.0831C145.93 65.2343 148.081 65.176 148.384 65.9216Z" fill="#0A0A0A"/>
<path d="M148.88 73.239C149.78 73.1726 150.455 72.3891 150.389 71.489C150.323 70.589 149.539 69.9131 148.639 69.9796C147.739 70.046 147.063 70.8295 147.13 71.7296C147.196 72.6297 147.979 73.3055 148.88 73.239Z" fill="#0A0A0A"/>
<path d="M117.238 73.8364L117.493 80.0698C118.569 78.5625 120.202 77.449 122.163 77.0673C122.65 76.9658 123.139 76.9358 123.619 76.941C126.766 79.0774 124.971 83.5359 127.4 83.228C128.778 83.0533 131.694 79.5526 132.3 77.4692C132.685 76.1487 128.863 71.4734 128.778 70.0999" fill="#0A0A0A"/>
<path d="M82.4306 266.188L79.0256 296.339H202.481L200.577 265.999L82.4306 266.188Z" fill="#262626"/>
<path d="M140.937 137.267C121.278 136.341 120.451 119.655 120.451 119.655C120.451 119.655 110.71 120.285 104.235 121.16C93.6345 122.595 82.396 126.233 77.2963 135.049C73.6295 141.386 72.7472 142.533 76.0825 178.295C78.4974 204.189 82.4312 266.188 82.4312 266.188L200.578 265.999C200.578 265.999 205.835 186.491 206.827 174.835C208.72 152.584 211.708 121.221 205.365 119.655C197.976 117.832 173.854 120.83 166.052 119.657C165.92 119.637 167.708 138.53 140.937 137.267Z" fill="#F25C54"/>
<path d="M350.328 50.0482C351.05 48.4192 352.993 47.7128 354.603 48.5293C356.112 49.2945 356.656 51.1945 355.971 52.7416L354.261 56.5998L365.245 46.9003C366.447 45.8007 368.626 45.22 369.77 46.6501C370.772 47.7451 370.841 49.3568 370.033 50.5285C370.047 50.5394 370.062 50.5469 370.073 50.5608C370.081 50.57 370.084 50.5821 370.091 50.5919L371.946 48.896C373.369 47.5946 375.669 47.8575 376.734 49.5897C377.526 50.8768 377.193 52.5663 376.078 53.5858L375.288 54.3077C375.299 54.3412 375.304 54.3763 375.302 54.4109C376.587 53.6867 378.259 53.9444 379.249 55.1479C380.325 56.4545 380.06 58.4133 378.811 59.5551L376.872 61.3288C376.961 61.319 377.053 61.3461 377.12 61.4187C377.158 61.462 377.175 61.5133 377.184 61.5658C378.441 61.2578 379.843 61.7393 380.608 62.9843C381.4 64.2713 381.067 65.9608 379.952 66.9803L363.416 82.103C358.684 86.4306 351.799 87.4547 346.012 84.6909L336.904 80.3408L350.327 50.047L350.328 50.0482Z" fill="#FF9E85"/>
<g opacity="0.2">
<path d="M359.212 60.1855C359.318 60.3002 359.497 60.3094 359.614 60.2051L370.048 50.9675C370.167 50.8619 370.178 50.6797 370.073 50.5604C369.983 50.4404 369.784 50.43 369.665 50.5356L359.232 59.7732C359.113 59.8787 359.102 60.0609 359.207 60.1803L359.212 60.1855Z" fill="#0C0C0C"/>
</g>
<g opacity="0.2">
<path d="M363.159 64.8994C363.266 65.0142 363.444 65.0234 363.562 64.919L375.206 54.6101C375.325 54.5045 375.336 54.3223 375.231 54.203C375.133 54.0945 374.943 54.0732 374.823 54.1782L363.18 64.4871C363.061 64.5927 363.049 64.7749 363.155 64.8942L363.159 64.8994Z" fill="#0C0C0C"/>
</g>
<g opacity="0.2">
<path d="M367.405 70.0295C367.511 70.1442 367.689 70.1534 367.807 70.0491L377.095 61.8258C377.214 61.7202 377.226 61.538 377.12 61.4187C377.011 61.3004 376.832 61.2889 376.713 61.3939L367.425 69.6172C367.306 69.7227 367.294 69.9049 367.4 70.0243L367.405 70.0295Z" fill="#0C0C0C"/>
</g>
<path d="M339.796 60.7405L277.185 112.031L190.511 119.85C178.611 120.857 169.78 131.319 170.787 143.219C171.741 154.499 181.192 163.022 192.309 163.022C192.921 163.022 193.536 162.996 194.156 162.944L287.633 154.549C292.061 154.175 296.266 152.445 299.676 149.596L365.25 91.4212L339.796 60.7405Z" fill="#F25C54"/>
<path d="M346.389 47.0317L359.429 43.377L364.049 30.626L371.28 41.8259L384.739 42.0121L376.169 52.5887L379.868 65.455L367.34 60.7912L356.167 68.5567L356.994 55.0982L346.389 47.0317Z" fill="#F25C54"/>
<path d="M353.684 58.0408L355.971 52.7416C356.656 51.1945 356.112 49.2945 354.603 48.5293C352.993 47.7128 351.05 48.4197 350.328 50.0481" fill="#FF9E85"/>
<path d="M190.211 217.05C190.142 218.741 188.64 220.026 186.95 220.041L184.322 220.072C184.393 220.121 184.446 220.208 184.445 220.303C184.446 220.363 184.427 220.411 184.396 220.457C185.539 221.064 186.26 222.356 186.001 223.798C185.73 225.285 184.358 226.319 182.846 226.339L160.443 226.582C154.031 226.655 148.212 222.825 145.747 216.91L141.855 207.594L153.777 205.057L154.061 202.085L172.062 193.966C173.686 193.234 175.605 194 176.261 195.682C176.873 197.261 176.014 199.041 174.472 199.735L170.622 201.469L185.276 201.568C186.907 201.55 188.918 202.569 188.817 204.395C188.832 205.882 187.813 207.132 186.43 207.465C186.431 207.482 186.433 207.495 186.434 207.514L186.425 207.547L188.938 207.52C190.869 207.5 192.41 209.227 192.045 211.232C191.779 212.72 190.401 213.753 188.896 213.769L187.821 213.785C187.807 213.812 187.787 213.842 187.769 213.866C189.206 214.184 190.275 215.494 190.213 217.049L190.211 217.05Z" fill="#FF9E85"/>
<g opacity="0.2">
<path d="M171.921 207.444C171.924 207.6 172.051 207.726 172.208 207.727L186.143 207.8C186.303 207.8 186.432 207.672 186.433 207.512C186.446 207.363 186.305 207.223 186.146 207.222L172.211 207.15C172.052 207.149 171.922 207.277 171.921 207.437V207.444H171.921Z" fill="#0C0C0C"/>
</g>
<g opacity="0.2">
<path d="M171.72 213.589C171.722 213.745 171.849 213.872 172.006 213.872L187.558 213.953C187.717 213.954 187.847 213.826 187.848 213.666C187.848 213.521 187.72 213.377 187.561 213.376L172.009 213.295C171.85 213.294 171.72 213.422 171.719 213.582V213.589H171.72Z" fill="#0C0C0C"/>
</g>
<g opacity="0.2">
<path d="M171.463 220.243C171.466 220.4 171.593 220.526 171.75 220.526L184.155 220.592C184.314 220.592 184.444 220.464 184.445 220.304C184.443 220.144 184.317 220.016 184.158 220.014L171.752 219.949C171.593 219.949 171.464 220.077 171.462 220.236L171.463 220.243Z" fill="#0C0C0C"/>
</g>
<path d="M159.285 233.25L65.4875 249.958C63.6492 250.447 61.785 250.684 59.9375 250.684C53.6995 250.684 47.6552 247.98 43.4879 243.096C38.0861 236.765 36.7961 227.898 40.1706 220.291L74.3296 140.831C79.1727 129.914 91.1447 124.99 102.06 129.833C112.976 134.676 117.9 147.451 113.057 158.367L93.0014 205.919L155.731 197.583L159.285 233.25Z" fill="#F25C54"/>
<path d="M81.6522 247.477C81.6788 247.477 81.7059 247.473 81.7324 247.465L159.365 233.527C159.516 233.484 159.604 233.328 159.564 233.178L156.01 196.357C155.971 196.206 155.815 196.114 155.667 196.149L93.5216 205.503L113.318 158.493C113.386 158.349 113.326 158.177 113.183 158.108C113.039 158.04 112.867 158.1 112.798 158.243L92.742 205.795C92.6941 205.895 92.7074 206.013 92.7772 206.1C92.8469 206.186 92.9605 206.226 93.0672 206.201L155.524 196.774L158.936 233.051L81.5732 246.911C81.4199 246.956 81.3322 247.115 81.376 247.268C81.4124 247.394 81.5277 247.476 81.6528 247.476L81.6522 247.477Z" fill="#0C0C0C"/>
<path d="M85.2371 207.245C85.2572 207.245 85.2774 207.243 85.2982 207.238L93.0625 206.201C93.2182 206.167 93.3162 206.013 93.2828 205.858C93.2493 205.702 93.0948 205.603 92.9397 205.637L85.1754 206.675C85.0197 206.709 84.9216 206.862 84.9551 207.018C84.9845 207.152 85.1044 207.245 85.2371 207.245Z" fill="#0C0C0C"/>
<path d="M207.925 162.067C208.074 162.067 208.201 161.952 208.212 161.801L209.497 145.171C209.509 145.013 209.39 144.874 209.232 144.862C209.086 144.842 208.934 144.968 208.922 145.127L207.638 161.757C207.626 161.915 207.744 162.054 207.903 162.066C207.91 162.067 207.917 162.067 207.925 162.067Z" fill="#0C0C0C"/>
<path d="M35.6371 296.916H333.253C333.571 296.916 333.829 296.658 333.829 296.339C333.829 296.021 333.571 295.763 333.253 295.763H35.6371C35.3188 295.763 35.0604 296.021 35.0604 296.339C35.0604 296.658 35.3188 296.916 35.6371 296.916Z" fill="#292A2E"/>
</g>
<defs>
<clipPath id="clip0_544_310">
<rect width="396.06" height="296.916" fill="white" transform="translate(0.969971)"/>
</clipPath>
</defs>
</svg>
