<svg xmlns="http://www.w3.org/2000/svg" width="23" height="22" viewBox="0 0 23 22" fill="none">
  <path d="M19.9219 11H18.7188C18.6242 11 18.5469 11.0773 18.5469 11.1719V18.0469H4.45312V3.95312H11.3281C11.4227 3.95312 11.5 3.87578 11.5 3.78125V2.57812C11.5 2.48359 11.4227 2.40625 11.3281 2.40625H3.59375C3.21348 2.40625 2.90625 2.71348 2.90625 3.09375V18.9062C2.90625 19.2865 3.21348 19.5938 3.59375 19.5938H19.4062C19.7865 19.5938 20.0938 19.2865 20.0938 18.9062V11.1719C20.0938 11.0773 20.0164 11 19.9219 11Z" fill="#191919"/>
  <path d="M8.14631 11.492L8.10549 14.0465C8.10334 14.2377 8.25803 14.3945 8.44924 14.3945H8.45783L10.993 14.3322C11.036 14.3301 11.0789 14.3129 11.109 14.2828L20.0444 5.3668C20.111 5.3002 20.111 5.19062 20.0444 5.12402L17.3739 2.45566C17.3395 2.42129 17.2965 2.40625 17.2514 2.40625C17.2063 2.40625 17.1633 2.42344 17.1289 2.45566L8.19573 11.3717C8.16469 11.4041 8.14705 11.4471 8.14631 11.492ZM9.51057 11.999L17.2514 4.27539L18.2225 5.24434L10.4774 12.9723L9.49553 12.9959L9.51057 11.999Z" fill="#191919"/>
</svg>