<svg width="104" height="26" viewBox="0 0 104 26" fill="none" xmlns="http://www.w3.org/2000/svg">
<path d="M10.7545 5.47165L12.9054 3.32068M8.60351 17.302L17.2074 8.69811M12.9054 22.6794L15.0564 20.5285M17.7451 20.5285C18.4582 20.5285 19.1421 20.2452 19.6463 19.741C20.1506 19.2367 20.4339 18.5528 20.4339 17.8397C20.4339 17.1267 20.1506 16.4428 19.6463 15.9385C19.1421 15.4343 18.4582 15.151 17.7451 15.151C17.032 15.151 16.3482 15.4343 15.8439 15.9385C15.3397 16.4428 15.0564 17.1267 15.0564 17.8397C15.0564 18.5528 15.3397 19.2367 15.8439 19.741C16.3482 20.2452 17.032 20.5285 17.7451 20.5285ZM8.06576 10.8491C8.77885 10.8491 9.46274 10.5658 9.96697 10.0616C10.4712 9.55734 10.7545 8.87346 10.7545 8.16037C10.7545 7.44727 10.4712 6.76339 9.96697 6.25916C9.46274 5.75493 8.77885 5.47165 8.06576 5.47165C7.35267 5.47165 6.66879 5.75493 6.16455 6.25916C5.66032 6.76339 5.37705 7.44727 5.37705 8.16037C5.37705 8.87346 5.66032 9.55734 6.16455 10.0616C6.66879 10.5658 7.35267 10.8491 8.06576 10.8491ZM5.91479 22.6794C6.62788 22.6794 7.31177 22.3962 7.816 21.8919C8.32023 21.3877 8.60351 20.7038 8.60351 19.9907C8.60351 19.2776 8.32023 18.5937 7.816 18.0895C7.31177 17.5853 6.62788 17.302 5.91479 17.302C5.2017 17.302 4.51781 17.5853 4.01358 18.0895C3.50935 18.5937 3.22607 19.2776 3.22607 19.9907C3.22607 20.7038 3.50935 21.3877 4.01358 21.8919C4.51781 22.3962 5.2017 22.6794 5.91479 22.6794ZM19.8961 8.69811C20.6092 8.69811 21.2931 8.41484 21.7973 7.9106C22.3016 7.40637 22.5848 6.72249 22.5848 6.00939C22.5848 5.2963 22.3016 4.61242 21.7973 4.10819C21.2931 3.60395 20.6092 3.32068 19.8961 3.32068C19.183 3.32068 18.4991 3.60395 17.9949 4.10819C17.4907 4.61242 17.2074 5.2963 17.2074 6.00939C17.2074 6.72249 17.4907 7.40637 17.9949 7.9106C18.4991 8.41484 19.183 8.69811 19.8961 8.69811Z" stroke="#F25C54" stroke-width="1.70813" stroke-linecap="round" stroke-linejoin="round"/>
<path d="M33.4601 20V8.47964H29.0379V6.335H40.1692V8.47964H35.7471V20H33.4601ZM43.8771 20.2847C42.8396 20.2847 41.9286 20.0601 41.1441 19.6109C40.3597 19.1618 39.746 18.5386 39.3031 17.7415C38.8666 16.9444 38.6484 16.027 38.6484 14.9895C38.6484 13.8697 38.8635 12.8986 39.2937 12.0762C39.7239 11.2474 40.3217 10.6053 41.0872 10.1498C41.8527 9.69431 42.7384 9.46656 43.7443 9.46656C44.8071 9.46656 45.7086 9.71645 46.4488 10.2162C47.1953 10.7097 47.7489 11.4088 48.1095 12.3134C48.4701 13.2181 48.6061 14.2841 48.5175 15.5114H46.2495V14.6763C46.2432 13.5629 46.0471 12.75 45.6612 12.2375C45.2753 11.7251 44.6679 11.4689 43.8392 11.4689C42.9029 11.4689 42.207 11.7599 41.7515 12.3419C41.296 12.9176 41.0682 13.7622 41.0682 14.8756C41.0682 15.9132 41.296 16.7166 41.7515 17.286C42.207 17.8554 42.8712 18.14 43.7443 18.14C44.3073 18.14 44.7913 18.0167 45.1962 17.7699C45.6074 17.5169 45.9237 17.1531 46.1451 16.6786L48.4037 17.3619C48.0114 18.2855 47.4041 19.0036 46.5817 19.516C45.7656 20.0285 44.864 20.2847 43.8771 20.2847ZM40.347 15.5114V13.7843H47.3978V15.5114H40.347ZM54.1366 20.2847C53.08 20.2847 52.1785 20.0506 51.432 19.5825C50.6855 19.108 50.113 18.4627 49.7144 17.6466C49.3222 16.8305 49.1229 15.9068 49.1166 14.8756C49.1229 13.8254 49.3285 12.8955 49.7334 12.0857C50.1446 11.2696 50.7266 10.6306 51.4795 10.1688C52.2323 9.70064 53.1275 9.46656 54.165 9.46656C55.3291 9.46656 56.3128 9.76074 57.1163 10.3491C57.9261 10.9311 58.4543 11.7282 58.701 12.7405L56.4235 13.3573C56.2464 12.8069 55.9522 12.3799 55.541 12.0762C55.1298 11.7662 54.6616 11.6112 54.1366 11.6112C53.5419 11.6112 53.0516 11.7536 52.6657 12.0382C52.2798 12.3166 51.9951 12.7025 51.8116 13.196C51.6281 13.6894 51.5364 14.2493 51.5364 14.8756C51.5364 15.8499 51.7547 16.6375 52.1912 17.2385C52.6277 17.8395 53.2762 18.14 54.1366 18.14C54.7439 18.14 55.2215 18.0009 55.5695 17.7225C55.9238 17.4441 56.1895 17.0424 56.3666 16.5173L58.701 17.0392C58.3847 18.0831 57.8312 18.8866 57.0404 19.4496C56.2496 20.0063 55.2816 20.2847 54.1366 20.2847ZM66.7424 20V15.0654C66.7424 14.7428 66.7203 14.3853 66.676 13.9931C66.6317 13.6009 66.5273 13.2244 66.3628 12.8638C66.2047 12.4969 65.9643 12.1964 65.6416 11.9623C65.3253 11.7282 64.8951 11.6112 64.3511 11.6112C64.06 11.6112 63.7722 11.6587 63.4875 11.7536C63.2028 11.8484 62.9434 12.0129 62.7094 12.247C62.4816 12.4748 62.2981 12.7911 62.159 13.196C62.0198 13.5945 61.9502 14.107 61.9502 14.7333L60.5932 14.1544C60.5932 13.2814 60.7608 12.4906 61.0961 11.782C61.4377 11.0735 61.9375 10.5104 62.5955 10.0929C63.2534 9.66901 64.0632 9.45707 65.0248 9.45707C65.784 9.45707 66.4103 9.5836 66.9037 9.83665C67.3972 10.0897 67.7894 10.4124 68.0805 10.8046C68.3715 11.1968 68.5866 11.6144 68.7257 12.0572C68.8649 12.5001 68.9535 12.9208 68.9915 13.3193C69.0357 13.7116 69.0579 14.0311 69.0579 14.2778V20H66.7424ZM59.6347 20V6.335H61.675V13.5281H61.9502V20H59.6347ZM70.5853 20V9.75125H72.6065V12.247L72.3598 11.9244C72.4863 11.5827 72.654 11.2727 72.8628 10.9944C73.0779 10.7097 73.3341 10.4756 73.6314 10.2922C73.8845 10.1213 74.1628 9.98849 74.4665 9.89359C74.7765 9.79237 75.0928 9.73227 75.4155 9.71329C75.7381 9.68798 76.0513 9.70064 76.3549 9.75125V11.8864C76.0513 11.7978 75.7001 11.7694 75.3016 11.801C74.9094 11.8326 74.5551 11.9433 74.2388 12.1331C73.9224 12.3039 73.6631 12.5222 73.4606 12.7879C73.2645 13.0536 73.119 13.3573 73.0241 13.6989C72.9292 14.0342 72.8817 14.398 72.8817 14.7902V20H70.5853ZM81.6909 20.2847C80.6534 20.2847 79.7424 20.0601 78.9579 19.6109C78.1734 19.1618 77.5598 18.5386 77.1169 17.7415C76.6804 16.9444 76.4621 16.027 76.4621 14.9895C76.4621 13.8697 76.6772 12.8986 77.1074 12.0762C77.5376 11.2474 78.1355 10.6053 78.901 10.1498C79.6664 9.69431 80.5521 9.46656 81.558 9.46656C82.6209 9.46656 83.5224 9.71645 84.2626 10.2162C85.0091 10.7097 85.5626 11.4088 85.9232 12.3134C86.2839 13.2181 86.4199 14.2841 86.3313 15.5114H84.0633V14.6763C84.057 13.5629 83.8608 12.75 83.4749 12.2375C83.089 11.7251 82.4817 11.4689 81.6529 11.4689C80.7166 11.4689 80.0207 11.7599 79.5652 12.3419C79.1097 12.9176 78.882 13.7622 78.882 14.8756C78.882 15.9132 79.1097 16.7166 79.5652 17.286C80.0207 17.8554 80.685 18.14 81.558 18.14C82.1211 18.14 82.6051 18.0167 83.0099 17.7699C83.4212 17.5169 83.7375 17.1531 83.9589 16.6786L86.2174 17.3619C85.8252 18.2855 85.2179 19.0036 84.3954 19.516C83.5793 20.0285 82.6778 20.2847 81.6909 20.2847ZM78.1608 15.5114V13.7843H85.2115V15.5114H78.1608ZM91.4569 20.2847C90.1916 20.2847 89.1635 20 88.3727 19.4306C87.5819 18.8612 87.1011 18.061 86.9303 17.0298L89.2648 16.6692C89.385 17.1753 89.6507 17.5738 90.0619 17.8648C90.4731 18.1559 90.9919 18.3014 91.6182 18.3014C92.1686 18.3014 92.5924 18.1938 92.8898 17.9787C93.1935 17.7573 93.3453 17.4568 93.3453 17.0772C93.3453 16.8431 93.2884 16.6565 93.1745 16.5173C93.0669 16.3718 92.8265 16.2326 92.4533 16.0998C92.08 15.9669 91.5075 15.7993 90.7357 15.5968C89.8753 15.3691 89.192 15.1255 88.6859 14.8661C88.1798 14.6004 87.816 14.2873 87.5946 13.9267C87.3732 13.5661 87.2625 13.1295 87.2625 12.6171C87.2625 11.9781 87.4301 11.4214 87.7654 10.9469C88.1007 10.4725 88.5689 10.1087 89.1699 9.85563C89.7709 9.59625 90.4794 9.46656 91.2955 9.46656C92.0927 9.46656 92.7981 9.58993 93.4117 9.83665C94.0317 10.0834 94.5315 10.4345 94.9111 10.89C95.2907 11.3455 95.5247 11.8801 95.6133 12.4937L93.2789 12.9113C93.2219 12.4748 93.0226 12.13 92.681 11.8769C92.3457 11.6239 91.8965 11.4815 91.3335 11.4499C90.7958 11.4183 90.3624 11.5005 90.0334 11.6966C89.7045 11.8864 89.54 12.1553 89.54 12.5032C89.54 12.6993 89.6064 12.867 89.7392 13.0062C89.8721 13.1454 90.1378 13.2845 90.5364 13.4237C90.9413 13.5629 91.5423 13.7337 92.3394 13.9362C93.1555 14.1449 93.8071 14.3853 94.2942 14.6574C94.7877 14.9231 95.142 15.2426 95.3571 15.6158C95.5785 15.9891 95.6892 16.4414 95.6892 16.9728C95.6892 18.004 95.3128 18.8138 94.56 19.4022C93.8134 19.9905 92.7791 20.2847 91.4569 20.2847ZM102.826 20C102.149 20.1265 101.484 20.1803 100.833 20.1613C100.188 20.1487 99.6087 20.0316 99.0963 19.8102C98.5838 19.5825 98.1948 19.225 97.929 18.7379C97.695 18.295 97.5716 17.8427 97.559 17.3809C97.5463 16.919 97.54 16.3971 97.54 15.8151V6.90437H99.8175V15.6822C99.8175 16.0935 99.8206 16.4541 99.827 16.7641C99.8396 17.074 99.906 17.3271 100.026 17.5232C100.254 17.9028 100.618 18.1147 101.118 18.159C101.617 18.2033 102.187 18.178 102.826 18.0831V20ZM95.68 11.5448V9.75125H102.826V11.5448H95.68Z" fill="#F25C54"/>
</svg>
