<svg xmlns="http://www.w3.org/2000/svg" width="22" height="22" viewBox="0 0 22 22" fill="none">
  <path d="M1.83301 20.1667V3.66667C1.83301 3.1625 2.01267 2.73106 2.37201 2.37234C2.73134 2.01361 3.16279 1.83395 3.66634 1.83334H18.333C18.8372 1.83334 19.2689 2.013 19.6283 2.37234C19.9876 2.73167 20.167 3.16311 20.1663 3.66667V14.6667C20.1663 15.1708 19.987 15.6026 19.6283 15.9619C19.2695 16.3213 18.8378 16.5006 18.333 16.5H5.49967L1.83301 20.1667ZM10.9997 13.75C11.2594 13.75 11.4773 13.662 11.6533 13.486C11.8293 13.31 11.917 13.0924 11.9163 12.8333C11.9157 12.5742 11.8277 12.3567 11.6523 12.1807C11.477 12.0047 11.2594 11.9167 10.9997 11.9167C10.74 11.9167 10.5224 12.0047 10.347 12.1807C10.1716 12.3567 10.0836 12.5742 10.083 12.8333C10.0824 13.0924 10.1704 13.3103 10.347 13.4869C10.5236 13.6635 10.7412 13.7512 10.9997 13.75ZM10.083 10.0833H11.9163V4.58334H10.083V10.0833Z" fill="#191919"/>
</svg>