<svg width="23" height="22" viewBox="0 0 23 22" fill="none" xmlns="http://www.w3.org/2000/svg">
<path d="M6.00033 4.125C6.00033 2.35308 7.43675 0.916664 9.20866 0.916664C10.1064 0.916664 10.918 1.28538 11.5003 1.87963C12.0826 1.28538 12.8943 0.916664 13.792 0.916664C15.5639 0.916664 17.0003 2.35308 17.0003 4.125C17.0003 4.61706 16.8896 5.08326 16.6916 5.5H19.292C20.5576 5.5 21.5837 6.52601 21.5837 7.79166C21.5837 9.05732 20.5576 10.0833 19.292 10.0833H12.417V5.5H13.792C14.5514 5.5 15.167 4.88439 15.167 4.125C15.167 3.36561 14.5514 2.75 13.792 2.75C13.0326 2.75 12.417 3.36561 12.417 4.125V5.5H10.5837V4.125C10.5837 3.36561 9.96805 2.75 9.20866 2.75C8.44927 2.75 7.83366 3.36561 7.83366 4.125C7.83366 4.88439 8.44927 5.5 9.20866 5.5H10.5837V10.0833H3.70866C2.44301 10.0833 1.41699 9.05732 1.41699 7.79166C1.41699 6.52601 2.44301 5.5 3.70866 5.5H6.30907C6.1111 5.08326 6.00033 4.61706 6.00033 4.125Z" fill="#111111"/>
<path d="M4.16699 11.9167H10.5837V20.1667H8.52911C7.79123 20.1667 7.18224 20.1667 6.68615 20.1262C6.1709 20.0841 5.69725 19.9937 5.25236 19.767C4.56243 19.4155 4.00151 18.8546 3.64997 18.1646C3.42329 17.7197 3.33294 17.2461 3.29084 16.7308C3.25031 16.2347 3.25031 15.6258 3.25033 14.8879V12.8333C3.25033 12.3271 3.66073 11.9167 4.16699 11.9167Z" fill="#111111"/>
<path d="M12.417 11.9167L12.417 20.1667H14.4715C15.2094 20.1667 15.8184 20.1667 16.3145 20.1262C16.8298 20.0841 17.3034 19.9937 17.7483 19.767C18.4382 19.4155 18.9991 18.8546 19.3507 18.1646C19.5774 17.7197 19.6677 17.2461 19.7098 16.7308C19.7503 16.2347 19.7503 15.6258 19.7503 14.8879V12.8333C19.7503 12.3271 19.3399 11.9167 18.8337 11.9167H12.417Z" fill="#111111"/>
</svg>
