<svg width="25" height="24" viewBox="0 0 25 24" fill="none" xmlns="http://www.w3.org/2000/svg">
<path d="M18.7472 2.19486C18.3397 1.99109 17.8962 1.98088 17.5491 2.01503C17.1829 2.05106 16.8002 2.14941 16.4321 2.27665C15.8105 2.4915 15.1471 2.81791 14.5385 3.1932C13.862 3.09828 13.1792 3.0535 12.4957 3.05928C11.8138 3.05946 11.133 3.10996 10.4589 3.21029C9.8642 2.83965 9.21852 2.5078 8.60315 2.28854C8.23646 2.15789 7.85059 2.05638 7.47405 2.02176C7.10693 1.98802 6.66739 2.01039 6.25772 2.21241C5.78644 2.44483 5.5111 2.85736 5.35114 3.21266C5.18651 3.57831 5.09388 3.99148 5.0458 4.39461C4.96279 5.09061 4.9981 5.88226 5.13304 6.62239C4.69295 7.60756 4.47612 8.67949 4.50002 9.76112C4.50263 11.4839 5.0739 13.1009 6.46398 14.2657C7.13367 14.8269 7.95974 15.2546 8.94093 15.5448C8.64618 16.1778 8.49289 16.8741 8.50002 17.5846V18.3211C7.98279 18.4467 7.44663 18.4838 6.91447 18.4296C6.74461 18.3594 6.65482 18.2824 6.59807 18.2187C6.52328 18.1348 6.45866 18.0209 6.38429 17.83C6.35277 17.7491 6.32508 17.6698 6.2914 17.5734L6.26672 17.5029C6.22467 17.3831 6.17214 17.2364 6.10726 17.0892C5.97543 16.7902 5.76372 16.4196 5.37003 16.1319L5.3616 16.1258C4.82863 15.7448 4.19613 15.5273 3.54152 15.5001C2.98971 15.4772 2.5238 15.906 2.50088 16.4578C2.47796 17.0096 2.90671 17.4755 3.45851 17.4984C3.72186 17.5094 3.97641 17.596 4.19165 17.748C4.19431 17.7502 4.20012 17.7558 4.20967 17.7692C4.22458 17.79 4.24707 17.8277 4.27715 17.8959C4.3082 17.9663 4.33896 18.0496 4.37964 18.1654L4.39919 18.2214C4.43329 18.3191 4.47503 18.4388 4.52074 18.5561C4.63387 18.8464 4.80301 19.2106 5.10508 19.5495C5.416 19.8983 5.82541 20.1738 6.35633 20.3554C6.4209 20.3775 6.48757 20.393 6.55528 20.4015C7.20454 20.4831 7.85964 20.4689 8.50002 20.3614V20.9993C8.50002 21.5516 8.94773 21.9993 9.50002 21.9993C10.0523 21.9993 10.5 21.5516 10.5 20.9993V19.072C10.5004 19.0567 10.5004 19.0414 10.5 19.026V17.5793L10.5 17.568C10.4933 16.9778 10.6787 16.4046 11.0235 15.9327C11.4914 15.977 11.9836 15.9993 12.5 15.9993C13.0164 15.9993 13.5086 15.977 13.9766 15.9327C14.3213 16.4046 14.5067 16.9778 14.5001 17.568L14.5 17.5793V20.9993C14.5 21.5516 14.9477 21.9993 15.5 21.9993C16.0523 21.9993 16.5 21.5516 16.5 20.9993V17.5846C16.5071 16.8741 16.3539 16.1778 16.0591 15.5448C17.0403 15.2546 17.8664 14.8269 18.5361 14.2657C19.9257 13.1012 20.4971 11.4849 20.5 9.76259C20.5271 8.67314 20.31 7.59294 19.8663 6.60075C19.9996 5.8471 20.0177 5.04573 19.9265 4.35152C19.8737 3.94995 19.7793 3.5439 19.6231 3.18835C19.4768 2.85538 19.2157 2.42907 18.7472 2.19486Z" fill="#191919"/>
</svg>
